
        <svg xmlns="http://www.w3.org/2000/svg" xmlns:xlink="http://www.w3.org/1999/xlink" version="1.1" width="3075.8533501896336" 
        height="929.2035398230088" viewBox="0 0 3075.8533501896336 929.2035398230088">
			<rect fill="#2d006c" width="3075.8533501896336" height="929.2035398230088"/>
			<g transform="scale(3.7926675094816686) translate(10, 10)">
				<defs id="SvgjsDefs7166"><linearGradient id="SvgjsLinearGradient7173"><stop id="SvgjsStop7174" stop-color="#905e26" offset="0"></stop><stop id="SvgjsStop7175" stop-color="#f5ec9b" offset="0.5"></stop><stop id="SvgjsStop7176" stop-color="#905e26" offset="1"></stop></linearGradient><linearGradient id="SvgjsLinearGradient7177"><stop id="SvgjsStop7178" stop-color="#905e26" offset="0"></stop><stop id="SvgjsStop7179" stop-color="#f5ec9b" offset="0.5"></stop><stop id="SvgjsStop7180" stop-color="#905e26" offset="1"></stop></linearGradient></defs><g id="SvgjsG7167" featureKey="symbolFeature-0" transform="matrix(4.6875,0,0,4.6875,0,0)" fill="url(#SvgjsLinearGradient7173)"><g xmlns="http://www.w3.org/2000/svg"><path d="M36,10.5L23.7,22.8c-0.4,0.4-0.4,1.1,0,1.5c0.4,0.4,1.1,0.4,1.5,0L37.5,12l3.7,0.5L48,5.7L43,5l-0.7-5l-6.9,6.9L36,10.5z"></path><path d="M42,14.5c1.5,2.8,2.4,6,2.4,9.5c0,11.2-9.1,20.3-20.3,20.3C12.8,44.3,3.7,35.2,3.7,24C3.7,12.8,12.8,3.7,24,3.7   c3.4,0,6.6,0.8,9.5,2.3l2.7-2.7C32.6,1.2,28.4,0,24,0C10.8,0,0,10.8,0,24c0,13.2,10.8,24,24,24c13.2,0,24-10.8,24-24   c0-4.4-1.2-8.6-3.3-12.2L42,14.5z"></path><path d="M33.4,10.3c-2.7-1.9-5.9-2.9-9.4-2.9C14.8,7.4,7.4,14.8,7.4,24c0,9.2,7.4,16.6,16.6,16.6S40.6,33.2,40.6,24   c0-3.5-1.1-6.7-2.9-9.4L35,17.3c1.2,2,1.9,4.3,1.9,6.7c0,7.1-5.8,12.9-12.9,12.9c-7.1,0-12.9-5.8-12.9-12.9   c0-7.1,5.8-12.9,12.9-12.9c2.5,0,4.8,0.7,6.7,1.9L33.4,10.3z"></path><path d="M24,18.5c0.4,0,0.8,0,1.1,0.1l2.9-2.9c-1.2-0.6-2.6-0.9-4-0.9c-5.1,0-9.2,4.1-9.2,9.2s4.1,9.2,9.2,9.2s9.2-4.1,9.2-9.2   c0-1.4-0.3-2.8-0.9-4l-2.9,2.9c0,0,0,0,0,0c0.1,0.4,0.1,0.7,0.1,1.1c0,3.1-2.5,5.5-5.5,5.5c-3.1,0-5.5-2.5-5.5-5.5   C18.5,20.9,20.9,18.5,24,18.5z"></path></g></g><g id="SvgjsG7168" featureKey="nameFeature-0" transform="matrix(0.10345931997724703,0,0,0.10345931997724703,492.862638970576,89.9654894827514)" fill="#651ec9"><path d="M17.148 10 l5.625 0 l0 30 l-5.332 0 l-0.13672 -2.6172 c-1.1523 1.9727 -3.5742 3.0859 -6.3086 3.0859 c-5.293 0 -9.668 -3.9063 -9.668 -10.469 s4.3945 -10.469 9.668 -10.469 c2.6367 0 4.9609 0.99609 6.1523 2.8125 l0 -12.344 z M12.285 35.8008 c2.9883 0 5.3125 -2.2852 5.3125 -5.8008 s-2.3438 -5.8203 -5.3125 -5.8203 c-2.9883 0 -5.332 2.207 -5.332 5.8203 c0 3.5938 2.3438 5.8008 5.332 5.8008 z M37.83205 23.105 c1.0156 -1.7773 3.6523 -3.418 6.5625 -3.418 l0 5.0195 c-4.2578 0 -6.2891 1.25 -6.2891 5.5078 l0 9.7852 l-5.6641 0 l0 -20.078 l5.3906 0 l0 3.1836 z M54.4141125 16.914 c-1.7773 0 -3.2617 -1.4453 -3.2617 -3.2422 c0 -1.7773 1.4844 -3.2227 3.2617 -3.2227 c1.7383 0 3.2227 1.4453 3.2227 3.2227 c0 1.7969 -1.4844 3.2422 -3.2227 3.2422 z M51.5430125 40 l0 -20.078 l5.6641 0 l0 20.078 l-5.6641 0 z M79.94184375 19.922 l5.957 0 l-8.5547 20.078 l-4.8828 0 l-8.457 -20.078 l5.918 0 l5 13.73 z M111.58215625 29.668 l-0.058594 1.3477 l-14.883 0 c0.23438 3.3398 2.4609 4.9414 5.1367 4.9414 c2.0117 0 3.5742 -0.9375 4.3359 -2.7148 l5.1563 0.76172 c-1.3281 4.0625 -4.9414 6.3867 -9.4531 6.3867 c-6.4844 0 -10.723 -3.8281 -10.723 -10.43 s4.3555 -10.469 10.547 -10.469 c5.6836 0 9.9219 3.1445 9.9414 10.176 z M101.68015625 23.477 c-2.5586 0 -4.3359 1.1914 -4.8828 3.8672 l9.2188 0 c-0.29297 -2.5586 -2.0313 -3.8672 -4.3359 -3.8672 z M131.562875 19.531 c4.8242 0 7.4805 2.5 7.4805 6.9531 l0 13.516 l-5.6445 0 l0 -12.305 c0 -2.6758 -1.6602 -3.6523 -3.5938 -3.6523 c-2.3242 0 -4.4336 1.1719 -4.4727 4.8828 l0 11.074 l-5.625 0 l0 -20.078 l5.625 0 l0 2.2266 c1.4063 -1.6602 3.5742 -2.6172 6.2305 -2.6172 z M176.81596875 10 l5.625 0 l0 30 l-5.332 0 l-0.13672 -2.6172 c-1.1523 1.9727 -3.5742 3.0859 -6.3086 3.0859 c-5.293 0 -9.668 -3.9063 -9.668 -10.469 s4.3945 -10.469 9.668 -10.469 c2.6367 0 4.9609 0.99609 6.1523 2.8125 l0 -12.344 z M171.95296875 35.8008 c2.9883 0 5.3125 -2.2852 5.3125 -5.8008 s-2.3438 -5.8203 -5.3125 -5.8203 c-2.9883 0 -5.332 2.207 -5.332 5.8203 c0 3.5938 2.3438 5.8008 5.332 5.8008 z M208.57421875 34.5508 c0 2.4609 0.23438 4.0234 0.48828 4.9023 l0 0.54688 l-5.2539 0 l-0.44922 -2.1875 c-1.5039 1.8164 -4.1016 2.5781 -6.4453 2.5781 c-3.1641 0 -6.25 -1.4063 -6.25 -5.5859 c0 -4.1602 3.1055 -5.5664 7.3047 -6.4844 l3.3008 -0.74219 c1.4258 -0.33203 1.9336 -0.82031 1.9336 -1.6406 c0 -1.9727 -1.7969 -2.5195 -3.3789 -2.5195 c-2.0313 0 -3.5742 0.80078 -3.9258 3.0664 l-4.9805 -0.89844 c0.83984 -4.1602 3.8867 -6.0547 9.2188 -6.0547 c4.0234 0 8.4375 1.1914 8.4375 7.2461 l0 7.7734 z M198.67191875 36.582 c2.6758 0 4.8242 -1.7773 4.8242 -5.7617 l-4.7656 1.3477 c-1.5625 0.37109 -2.6953 0.91797 -2.6953 2.2656 c0 1.4453 1.1914 2.1484 2.6367 2.1484 z M225.37146875 40 c-3.9063 0 -6.1328 -2.2656 -6.1328 -6.2695 l0 -9.4922 l-3.9453 0 l0 -4.3164 l1.2695 0 c2.1289 0 3.3008 -0.82031 3.3008 -3.8281 l0 -2.6563 l5.0781 0 l0 6.4844 l4.1406 0 l0 4.3164 l-4.1406 0 l0 8.8867 c0 1.7969 0.87891 2.5977 2.3242 2.5977 l1.8164 0 l0 4.2773 l-3.7109 0 z M253.75 34.5508 c0 2.4609 0.23438 4.0234 0.48828 4.9023 l0 0.54688 l-5.2539 0 l-0.44922 -2.1875 c-1.5039 1.8164 -4.1016 2.5781 -6.4453 2.5781 c-3.1641 0 -6.25 -1.4063 -6.25 -5.5859 c0 -4.1602 3.1055 -5.5664 7.3047 -6.4844 l3.3008 -0.74219 c1.4258 -0.33203 1.9336 -0.82031 1.9336 -1.6406 c0 -1.9727 -1.7969 -2.5195 -3.3789 -2.5195 c-2.0313 0 -3.5742 0.80078 -3.9258 3.0664 l-4.9805 -0.89844 c0.83984 -4.1602 3.8867 -6.0547 9.2188 -6.0547 c4.0234 0 8.4375 1.1914 8.4375 7.2461 l0 7.7734 z M243.8477 36.582 c2.6758 0 4.8242 -1.7773 4.8242 -5.7617 l-4.7656 1.3477 c-1.5625 0.37109 -2.6953 0.91797 -2.6953 2.2656 c0 1.4453 1.1914 2.1484 2.6367 2.1484 z M291.54253125 10 l5.625 0 l0 30 l-5.332 0 l-0.13672 -2.6172 c-1.1523 1.9727 -3.5742 3.0859 -6.3086 3.0859 c-5.293 0 -9.668 -3.9063 -9.668 -10.469 s4.3945 -10.469 9.668 -10.469 c2.6367 0 4.9609 0.99609 6.1523 2.8125 l0 -12.344 z M286.67953125 35.8008 c2.9883 0 5.3125 -2.2852 5.3125 -5.8008 s-2.3438 -5.8203 -5.3125 -5.8203 c-2.9883 0 -5.332 2.207 -5.332 5.8203 c0 3.5938 2.3438 5.8008 5.332 5.8008 z M319.98078125 19.922 l5.7617 0 l-12.383 29.531 l-5.7031 0 l4.5898 -10.273 l-8.2617 -19.258 l6.1328 0 l4.7852 13.203 z M344.4144375 19.531 c4.8242 0 7.4805 2.5 7.4805 6.9531 l0 13.516 l-5.6445 0 l0 -12.305 c0 -2.6758 -1.6602 -3.6523 -3.5938 -3.6523 c-2.3242 0 -4.4336 1.1719 -4.4727 4.8828 l0 11.074 l-5.625 0 l0 -20.078 l5.625 0 l0 2.2266 c1.4063 -1.6602 3.5742 -2.6172 6.2305 -2.6172 z M377.65625 34.5508 c0 2.4609 0.23438 4.0234 0.48828 4.9023 l0 0.54688 l-5.2539 0 l-0.44922 -2.1875 c-1.5039 1.8164 -4.1016 2.5781 -6.4453 2.5781 c-3.1641 0 -6.25 -1.4063 -6.25 -5.5859 c0 -4.1602 3.1055 -5.5664 7.3047 -6.4844 l3.3008 -0.74219 c1.4258 -0.33203 1.9336 -0.82031 1.9336 -1.6406 c0 -1.9727 -1.7969 -2.5195 -3.3789 -2.5195 c-2.0313 0 -3.5742 0.80078 -3.9258 3.0664 l-4.9805 -0.89844 c0.83984 -4.1602 3.8867 -6.0547 9.2188 -6.0547 c4.0234 0 8.4375 1.1914 8.4375 7.2461 l0 7.7734 z M367.75395 36.582 c2.6758 0 4.8242 -1.7773 4.8242 -5.7617 l-4.7656 1.3477 c-1.5625 0.37109 -2.6953 0.91797 -2.6953 2.2656 c0 1.4453 1.1914 2.1484 2.6367 2.1484 z M410.7615 19.531 c4.2969 0 7.0703 2.1875 7.0703 6.3086 l0 14.16 l-5.625 0 l0 -12.559 c0 -2.3633 -1.4844 -3.3984 -3.1641 -3.3984 c-2.0117 0 -3.7891 1.1523 -3.7891 4.6289 l0 11.328 l-5.6836 0 l0 -12.5 c0 -2.4023 -1.4453 -3.457 -3.2227 -3.457 c-1.9531 0 -3.7695 1.1523 -3.7695 4.9219 l0 11.035 l-5.6055 0 l0 -20.078 l5.6055 0 l0 2.3633 c1.3281 -1.7773 3.3594 -2.7539 5.8203 -2.7539 c2.9102 0 5.0977 1.0547 6.1523 3.0078 c1.4063 -2.0117 3.5547 -3.0078 6.2109 -3.0078 z M430.01958125 16.914 c-1.7773 0 -3.2617 -1.4453 -3.2617 -3.2422 c0 -1.7773 1.4844 -3.2227 3.2617 -3.2227 c1.7383 0 3.2227 1.4453 3.2227 3.2227 c0 1.7969 -1.4844 3.2422 -3.2227 3.2422 z M427.14848125 40 l0 -20.078 l5.6641 0 l0 20.078 l-5.6641 0 z M451.5623125 40.37109 c-6.3086 0 -10.762 -4.1992 -10.762 -10.43 c0 -6.25 4.4531 -10.41 10.762 -10.41 c5.0781 0 8.8867 2.6367 9.8633 7.3828 l-5.1953 0.56641 c-0.625 -2.4023 -2.3633 -3.5156 -4.7266 -3.5156 c-3.0273 0 -5.0781 2.3828 -5.0781 5.9766 c0 3.5742 2.0508 5.9766 5.0781 5.9766 c2.3633 0 4.1016 -1.1328 4.7266 -3.5156 l5.1953 0.56641 c-0.97656 4.7461 -4.8828 7.4023 -9.8633 7.4023 z M476.3476875 40.39063 c-4.5117 0 -8.0078 -1.7773 -8.7305 -5.5859 l4.707 -1.3281 c0.60547 2.1484 2.1289 2.9883 4.0234 2.9883 c1.3867 0 2.8906 -0.42969 2.8516 -2.0117 c-0.019531 -2.0898 -3.1836 -2.2656 -6.3672 -3.3984 c-2.4023 -0.83984 -4.707 -2.1289 -4.707 -5.5078 c0 -4.1211 3.418 -6.0156 7.8711 -6.0156 c3.9063 0 7.168 1.4844 7.9492 5.3125 l-4.3555 0.97656 c-0.60547 -1.875 -1.9336 -2.5391 -3.5742 -2.5391 c-1.4844 0 -2.7539 0.52734 -2.7539 1.7773 c0 1.582 2.3242 1.8945 4.8438 2.5781 c3.1055 0.83984 6.5039 2.1875 6.5039 6.4844 c0 4.6094 -3.9258 6.2695 -8.2617 6.2695 z"></path></g><g id="SvgjsG7169" featureKey="sloganFeature-0" transform="matrix(2.0286008081372944,0,0,2.0286008081372944,241.83538116258686,95.35350355817837)" fill="url(#SvgjsLinearGradient7177)"><path d="M2.18 7.359999999999999 l6.04 0 c0.42 0 0.62 0.34 0.62 0.68 s-0.2 0.66 -0.62 0.66 l-2.28 0 l0 10.06 c0 0.42 -0.34 0.64 -0.68 0.64 s-0.66 -0.22 -0.66 -0.64 l0 -10.06 l-2.42 0 c-0.42 0 -0.62 -0.32 -0.62 -0.66 s0.2 -0.68 0.62 -0.68 z M16.9995 15.86 l0 -4.96 c0 -2.4 1.24 -3.68 3.64 -3.68 l0.52 0 c2.38 0 3.64 1.28 3.64 3.68 l0 4.96 c0 2.2 -1.46 3.64 -3.64 3.64 l-0.52 0 c-2.22 0 -3.64 -1.46 -3.64 -3.64 z M20.6395 18.16 l0.52 0 c1.44 0 2.3 -0.9 2.3 -2.3 l0 -4.96 c0 -1.56 -0.76 -2.36 -2.3 -2.36 l-0.52 0 c-1.52 0 -2.36 0.82 -2.36 2.36 l0 4.96 c0 1.46 0.92 2.3 2.36 2.3 z M40.259 10.28 l0 2.5 c0 2.38 -1.24 3.14 -3.34 3.14 l-1.86 0 l0 2.84 c0 0.42 -0.34 0.64 -0.66 0.64 c-0.34 0 -0.66 -0.22 -0.66 -0.64 l0 -10.74 c0 -0.38 0.32 -0.66 0.66 -0.66 l2.7 0 c1.1 0 3.16 0.22 3.16 2.92 z M37.099000000000004 8.7 l-2.04 0 l0 5.86 l1.86 0 c0.98 0 2.04 -0.24 2.02 -1.8 l-0.02 -2.48 c0 -0.48 -0.08 -1.58 -1.82 -1.58 z M60.118 18.76 l0 -10.76 c0 -0.42 0.32 -0.64 0.64 -0.64 s0.66 0.22 0.66 0.64 l0 10.06 l3.98 0 c0.44 0 0.68 0.34 0.68 0.68 s-0.24 0.66 -0.68 0.66 l-4.62 0 c-0.4 0 -0.66 -0.32 -0.66 -0.64 z M73.95750000000001 15.86 l0 -4.96 c0 -2.4 1.24 -3.68 3.64 -3.68 l0.52 0 c2.38 0 3.64 1.28 3.64 3.68 l0 4.96 c0 2.2 -1.46 3.64 -3.64 3.64 l-0.52 0 c-2.22 0 -3.64 -1.46 -3.64 -3.64 z M77.59750000000001 18.16 l0.52 0 c1.44 0 2.3 -0.9 2.3 -2.3 l0 -4.96 c0 -1.56 -0.76 -2.36 -2.3 -2.36 l-0.52 0 c-1.52 0 -2.36 0.82 -2.36 2.36 l0 4.96 c0 1.46 0.92 2.3 2.36 2.3 z M96.537 18.86 l-0.78 -2.54 l-3.72 0 l-0.74 2.5 c-0.26 0.86 -1.58 0.6 -1.3 -0.28 c1.04 -3.5 2.06 -7.06 3.08 -10.6 c0.12 -0.38 0.44 -0.58 0.76 -0.58 c0.3 0 0.62 0.2 0.74 0.58 l3.18 10.6 c0.22 0.76 -0.96 1.18 -1.22 0.32 z M93.877 10.06 l-1.44 4.92 l2.94 0 c-0.5 -1.68 -0.96 -3.12 -1.5 -4.92 z M106.3365 18.78 l0 -10.76 c0 -0.54 0.38 -0.66 0.66 -0.66 l3.2 0 c2.64 0 3.94 1.26 3.94 3.74 l0 5.12 c0 1.56 -1.22 3.2 -3.88 3.2 l-3.26 0 c-0.28 0 -0.66 -0.16 -0.66 -0.64 z M112.81649999999999 16.22 l0 -5.12 c0 -1.64 -0.88 -2.4 -2.62 -2.4 l-2.54 0 l0 9.42 l2.6 0 c1.22 0 2.56 -0.66 2.56 -1.9 z M123.01599999999999 18.7 l0 -10.64 c0 -0.46 0.36 -0.7 0.7 -0.7 l4.6 0 c0.44 0 0.66 0.32 0.66 0.66 s-0.22 0.68 -0.66 0.68 l-3.96 0 l0 3.88 l3.14 0 c0.46 0 0.68 0.32 0.68 0.66 s-0.24 0.7 -0.68 0.7 l-3.14 0 l0 4.14 l3.96 0 c0.42 0 0.64 0.34 0.64 0.66 c0 0.34 -0.22 0.66 -0.64 0.66 l-4.6 0 c-0.34 0 -0.7 -0.12 -0.7 -0.7 z M139.03549999999998 15.9 l0 2.86 c0 0.44 -0.34 0.64 -0.66 0.64 c-0.34 0 -0.66 -0.2 -0.66 -0.64 l0 -10.74 c0 -0.4 0.22 -0.66 0.66 -0.66 l2.7 0 c0.76 0 3.16 0.22 3.16 2.92 l0 2.5 c0 1.52 -0.56 2.48 -1.84 2.9 l1.36 2.74 c0.28 0.54 -0.14 0.98 -0.58 0.98 c-0.24 0 -0.54 -0.16 -0.7 -0.5 l-1.46 -3 l-1.98 0 z M142.91549999999998 12.780000000000001 l0 -2.5 c0 -0.48 -0.18 -1.58 -1.84 -1.58 l-2.04 0 l0 5.86 l1.86 0 c0.98 0 2.02 -0.22 2.02 -1.78 z M170.6745 18.86 l-0.78 -2.54 l-3.72 0 l-0.74 2.5 c-0.26 0.86 -1.58 0.6 -1.3 -0.28 c1.04 -3.5 2.06 -7.06 3.08 -10.6 c0.12 -0.38 0.44 -0.58 0.76 -0.58 c0.3 0 0.62 0.2 0.74 0.58 l3.18 10.6 c0.22 0.76 -0.96 1.18 -1.22 0.32 z M168.0145 10.06 l-1.44 4.92 l2.94 0 c-0.5 -1.68 -0.96 -3.12 -1.5 -4.92 z M180.214 15.879999999999999 l0 -4.82 c0 -2.88 1.58 -3.74 3.9 -3.74 c1.92 0 3.78 0.98 3.78 3 c0 0.44 -0.32 0.66 -0.66 0.66 s-0.68 -0.22 -0.68 -0.66 c0 -1.02 -1.12 -1.7 -2.44 -1.7 c-1.82 0 -2.58 0.74 -2.58 2.44 l0 4.82 c0 1.74 0.96 2.28 2.58 2.28 c1.92 0 2.6 -0.92 2.6 -2.7 l0 -0.84 l-1.8 0 c-0.42 0 -0.64 -0.32 -0.64 -0.66 s0.22 -0.68 0.64 -0.68 l2.5 0 c0.4 0 0.62 0.4 0.62 0.68 l0 1.5 c0 2.88 -1.12 4 -3.92 4 c-2.64 0 -3.9 -0.96 -3.9 -3.58 z M196.8335 18.7 l0 -10.64 c0 -0.46 0.36 -0.7 0.7 -0.7 l4.6 0 c0.44 0 0.66 0.32 0.66 0.66 s-0.22 0.68 -0.66 0.68 l-3.96 0 l0 3.88 l3.14 0 c0.46 0 0.68 0.32 0.68 0.66 s-0.24 0.7 -0.68 0.7 l-3.14 0 l0 4.14 l3.96 0 c0.42 0 0.64 0.34 0.64 0.66 c0 0.34 -0.22 0.66 -0.64 0.66 l-4.6 0 c-0.34 0 -0.7 -0.12 -0.7 -0.7 z M218.29299999999998 8 l0 10.76 c0 0.42 -0.32 0.64 -0.64 0.64 c-0.24 0 -0.56 -0.18 -0.7 -0.44 c-1.5 -2.94 -2.62 -5.2 -4.12 -8.16 l0 7.96 c0 0.42 -0.32 0.64 -0.66 0.64 c-0.32 0 -0.66 -0.22 -0.66 -0.64 l0 -10.76 c0 -0.7 1 -0.74 1.22 -0.32 l4.22 8.34 l0 -8.02 c0 -0.42 0.32 -0.64 0.66 -0.64 s0.68 0.22 0.68 0.64 z M227.1525 7.359999999999999 l6.04 0 c0.42 0 0.62 0.34 0.62 0.68 s-0.2 0.66 -0.62 0.66 l-2.28 0 l0 10.06 c0 0.42 -0.34 0.64 -0.68 0.64 s-0.66 -0.22 -0.66 -0.64 l0 -10.06 l-2.42 0 c-0.42 0 -0.62 -0.32 -0.62 -0.66 s0.2 -0.68 0.62 -0.68 z M259.6315 18.86 l-0.78 -2.54 l-3.72 0 l-0.74 2.5 c-0.26 0.86 -1.58 0.6 -1.3 -0.28 c1.04 -3.5 2.06 -7.06 3.08 -10.6 c0.12 -0.38 0.44 -0.58 0.76 -0.58 c0.3 0 0.62 0.2 0.74 0.58 l3.18 10.6 c0.22 0.76 -0.96 1.18 -1.22 0.32 z M256.9715 10.06 l-1.44 4.92 l2.94 0 c-0.5 -1.68 -0.96 -3.12 -1.5 -4.92 z M269.41100000000006 18.78 l0 -10.78 c0 -0.42 0.32 -0.64 0.64 -0.64 s0.66 0.22 0.66 0.64 l0 10.78 c0 0.86 -1.3 0.86 -1.3 0 z"></path></g>
			</g>
		</svg>
	